<svg xmlns="http://www.w3.org/2000/svg" viewBox="0 0 194.49 194.49"><defs><style>.cls-1{fill:#e60816;}.cls-2{fill:#00a84d;}.cls-3{fill:#6e60a8;}.cls-4{fill:#fcc800;}.cls-5{fill:#c60080;}.cls-6{fill:#b8d200;}.cls-7{fill:#007dc3;}.cls-8{fill:#f39800;}.cls-9{fill:#923d92;}.cls-10{fill:#ffea00;}.cls-11{fill:#00aca7;}.cls-12{fill:#ea550a;}</style></defs><title>资源 1</title><g id="图层_2" data-name="图层 2"><g id="图层_1-2" data-name="图层 1"><path class="cls-1" d="M93.07,81.48a15.84,15.84,0,0,1,8.35,0,2.88,2.88,0,0,0,.18-.49l15-55.82A20,20,0,0,0,97.25,0h0A20,20,0,0,0,77.93,25.17L92.89,81A4.09,4.09,0,0,0,93.07,81.48Z"/><path class="cls-2" d="M101.43,113a15.92,15.92,0,0,1-8.37,0c-.06.16-.12.31-.17.49l-15,55.81a20,20,0,0,0,19.32,25.17h0a20,20,0,0,0,19.31-25.17l-15-55.81A3.53,3.53,0,0,0,101.43,113Z"/><path class="cls-3" d="M81.48,101.43a15.88,15.88,0,0,1,0-8.36,3.68,3.68,0,0,0-.5-.18l-55.81-15a20,20,0,1,0,0,38.63L81,101.6A3.67,3.67,0,0,0,81.48,101.43Z"/><path class="cls-4" d="M194.49,97.25a20,20,0,0,0-25.17-19.32l-55.81,15a4.24,4.24,0,0,0-.5.18,16,16,0,0,1,.56,4.18,16.46,16.46,0,0,1-.55,4.18,3.53,3.53,0,0,0,.49.17l55.81,15A20,20,0,0,0,194.49,97.25Z"/><path class="cls-5" d="M85.73,85.67A16.39,16.39,0,0,1,93,81.5a3,3,0,0,0-.09-.51l-15-55.82A20,20,0,0,0,48.62,13h0a20,20,0,0,0-4.14,31.45L85.34,85.34A3.8,3.8,0,0,0,85.73,85.67Z"/><path class="cls-6" d="M108.76,108.82a16.3,16.3,0,0,1-7.25,4.18c0,.17,0,.33.09.51l15,55.81a20,20,0,0,0,29.31,12.14h0A20,20,0,0,0,150,150l-40.86-40.86C109,109,108.89,108.93,108.76,108.82Z"/><path class="cls-7" d="M85.67,108.76a16.28,16.28,0,0,1-4.17-7.25l-.52.09-55.81,15A20,20,0,0,0,13,145.87h0A20,20,0,0,0,44.48,150l40.86-40.86A4,4,0,0,0,85.67,108.76Z"/><path class="cls-8" d="M108.82,85.73A16.28,16.28,0,0,1,113,93a3.34,3.34,0,0,0,.52-.09l55.81-15a20,20,0,0,0,12.14-29.31h0A20,20,0,0,0,150,44.48L109.15,85.34C109,85.47,108.93,85.6,108.82,85.73Z"/><path class="cls-9" d="M81.5,93a16.28,16.28,0,0,1,4.17-7.25,3.8,3.8,0,0,0-.33-.39L44.48,44.48A20,20,0,0,0,13,48.62h0A20,20,0,0,0,25.17,77.93L81,92.89A3.34,3.34,0,0,0,81.5,93Z"/><path class="cls-10" d="M113,101.51a16.28,16.28,0,0,1-4.17,7.25c.11.13.21.27.33.39L150,150a20,20,0,0,0,31.45-4.14h0a20,20,0,0,0-12.14-29.31l-55.81-15Z"/><path class="cls-11" d="M93,113a16.21,16.21,0,0,1-7.25-4.18c-.13.11-.26.21-.39.33L44.48,150a20,20,0,0,0,4.14,31.45h0a20,20,0,0,0,29.31-12.14l15-55.81A5,5,0,0,0,93,113Z"/><path class="cls-12" d="M101.51,81.5a16.28,16.28,0,0,1,7.25,4.17,3.8,3.8,0,0,0,.39-.33L150,44.48A20,20,0,0,0,145.87,13h0a20,20,0,0,0-29.31,12.14L101.6,81C101.56,81.16,101.54,81.33,101.51,81.5Z"/></g></g></svg>